<?xml version="1.0" encoding="utf-8"?>
<!-- Generator: Adobe Illustrator 28.0.0, SVG Export Plug-In . SVG Version: 6.00 Build 0)  -->
<svg version="1.1" id="OBJECTS" xmlns="http://www.w3.org/2000/svg" xmlns:xlink="http://www.w3.org/1999/xlink" x="0px" y="0px"
	 width="500px" height="500px" viewBox="0 0 500 500" enable-background="new 0 0 500 500" xml:space="preserve">
<g id="g219" transform="matrix(1.2397384,0,0,1.2397384,123.70692,654.37533)">
	<path id="path203" fill="#E22B2B" d="M60.9-430.9c-7.5,0-15.6,1.6-26.3,6.4c-28,12.8-84.7,30.1-117.9,58.9c-0.7,0.6-1,1.6-0.7,2.6
		C-68-309-5.2-242.7,26.4-231c31.8,11.8,50.3,9.3,75.5,9.3c25.2,0,43.6,2.5,75.5-9.3c31.6-11.7,94.4-78,110.4-131.9
		c0.3-0.9,0-1.9-0.7-2.6c-33.2-28.8-90-46.1-117.9-58.9c-28.3-13-38.9-2.4-67.2-2.4C84.2-426.8,73.4-430.9,60.9-430.9L60.9-430.9z"
		/>
	<path id="path204" opacity="0.23" fill="#7F1C1C" d="M101.9-389.8c-59.8,0-159.3,10-171,32.9c33.7,61.8,109.1,80,171,80
		c61.9,0,145.1-23.1,171-80C253.3-384.7,161.7-389.8,101.9-389.8z"/>
	<g>
		<defs>
			<path id="SVGID_00000062183447694459562040000013359951100309744525_" d="M101.9-371.4c-57.8,0-125.5,3.6-165.1,14.5
				c48.7,63.9,165.1,69.6,165.1,69.6s114.4-5.7,165.1-69.6C236.2-365.9,159.7-371.4,101.9-371.4z"/>
		</defs>
		<clipPath id="SVGID_00000134234638609664936020000012565988342245953920_">
			<use xlink:href="#SVGID_00000062183447694459562040000013359951100309744525_"  overflow="visible"/>
		</clipPath>
		<g id="g216" clip-path="url(#SVGID_00000134234638609664936020000012565988342245953920_)">
			<path id="path205" fill="#7F1C1C" d="M101.9-417.4c-57.8,0-151,27.1-165.1,62.5c44.8,82.5,165.1,87.2,165.1,87.2
				S222.2-272.5,267-355C252.9-390.3,159.7-417.4,101.9-417.4L101.9-417.4z"/>
			<path id="path206" fill="#FF6A64" d="M100.7-350.3c-52,0-76.5,1.2-100.9,20c-24.5,18.9-22.9,73.1-22.9,73.1h123.8h123.8
				c0,0,1.5-54.2-22.9-73.1C177.1-349.1,152.7-350.3,100.7-350.3z"/>
			<path id="path207" fill="#EFEFEF" d="M101.7-399.4c0,0-82.6,0.8-99.3,7.5c-16.7,6.7-47.3,27.7-47.3,27.7
				c-2,13.6,24.4,26.4,40.7,14c16.7,21.7,32.5,10,43.4,5.8c23.4,18.3,50.9,11.7,62.6,2.5c11.7,9.2,39.2,15.8,62.6-2.5
				c10.8,4.2,26.7,15.8,43.4-5.8c16.8,14.1,44.4-0.1,41.7-14.9c0,0-31.6-20.1-48.3-26.7C184.3-398.5,101.7-399.4,101.7-399.4z"/>
			<path id="path208" fill="#FFFFFF" d="M83.1-382.8c-16.5,2.4-26.5,2.4-30.7,11.8c-4.1,9.4-6.5,21.2,5.3,27.1
				c11.8,5.9,23.6,7.7,31.8-0.6C97.8-352.7,96.7-384.5,83.1-382.8z"/>
			<path id="path209" fill="#FFFFFF" d="M30-373.9c-12.4,2.9-23,8.2-27.1,14.7s1.8,16.5,12.4,15.3c10.6-1.2,14.7,2.4,18.3-5.9
				C37.1-358,41.2-375.7,30-373.9L30-373.9z"/>
			<path id="path210" fill="#FFFFFF" d="M174-373.9c12.4,2.9,23,8.2,27.1,14.7s-1.8,16.5-12.4,15.3c-10.6-1.2-14.7,2.4-18.3-5.9
				C166.9-358,162.8-375.7,174-373.9L174-373.9z"/>
			<path id="path211" fill="#FFFFFF" d="M119.5-382.8c16.5,2.4,26.5,2.4,30.7,11.8c4.1,9.4,6.5,21.2-5.3,27.1
				c-11.8,5.9-23.6,7.7-31.8-0.6C104.8-352.7,106-384.5,119.5-382.8z"/>
			<path id="path212" fill="#EFEFEF" d="M101.7-257.3c0,0-82.6-0.8-99.3-7.5s-45.9-37.5-45.9-37.5s23.4-13.3,39.2-4.2
				c16.7-21.7,32.5-10,43.4-5.8c23.4-18.3,50.9-11.7,62.6-2.5c11.7-9.2,39.2-15.8,62.6,2.5c10.8-4.2,26.7-15.8,43.4,5.8
				c15.8-9.2,39.2,4.2,39.2,4.2s-29.2,30.8-45.9,37.5C184.3-258.2,101.7-257.3,101.7-257.3z"/>
			<path id="path213" fill="#FFFFFF" d="M83.1-273.9c-16.5-2.4-26.5-2.4-30.7-11.8c-4.1-9.4-6.5-21.2,5.3-27.1
				c11.8-5.9,23.6-7.7,31.8,0.6C97.8-304,96.7-272.2,83.1-273.9z"/>
			<path id="path214" fill="#FFFFFF" d="M30-282.8c-12.4-2.9-23-8.2-27.1-14.7c-4.1-6.5,1.8-16.5,12.4-15.3
				c10.6,1.2,14.7-2.4,18.3,5.9C37.1-298.7,41.2-281,30-282.8L30-282.8z"/>
			<path id="path215" fill="#FFFFFF" d="M174-282.8c12.4-2.9,23-8.2,27.1-14.7c4.1-6.5-1.8-16.5-12.4-15.3
				c-10.6,1.2-14.7-2.4-18.3,5.9C166.9-298.7,162.8-281,174-282.8L174-282.8z"/>
			<path id="path216" fill="#FFFFFF" d="M119.5-273.9c16.5-2.4,26.5-2.4,30.7-11.8c4.1-9.4,6.5-21.2-5.3-27.1
				c-11.8-5.9-23.6-7.7-31.8,0.6C104.8-304,106-272.2,119.5-273.9z"/>
		</g>
	</g>
	<path id="path217" opacity="0.18" fill="#FFFFFF" d="M-11.9-395.3c-0.2-0.9,4.6-2.9,12.2-6c4-1.7,21.8-9.2,30-12.4
		c3.1-1.2,6.2-2.4,9.2-3.4l0,0c7.9-2.8,14.4-4.6,21-4.9c11.2-0.8,15.3,4.8,15,5.4c-0.6,0.7-5.7-2.1-14.4-0.7c-6.1,1.1-11.4,3-19.4,6
		l0,0c-3,1.2-5.8,2.3-9,3.5c-12.7,4.9-21.9,8.4-30.9,10.8C-6.5-395-11.7-394.5-11.9-395.3z"/>
	<path id="path218" opacity="0.18" fill="#FFFFFF" d="M112.6-414.9c-0.1-0.9,3.9-2.3,10.8-3.8c6.6-1.4,16.6-2.9,27.3-2.2
		c0.5,0,0.9,0.1,1.4,0.1c22.3,1.8,34.7,14,34,15.1c-0.9,1.4-15.1-7.4-34.5-8.8c-0.4,0-0.8-0.1-1.3-0.1c-9.6-0.6-20,0.1-26.3,0.4
		C117.1-413.9,112.7-414,112.6-414.9z"/>
	<path id="path219" opacity="0.18" fill="#FFFFFF" d="M30-279.8c1.2-2.1,10.1,1,24.2,4c14.7,3.2,33,5.6,55.5,4c0,0,0.3,0,0.3,0
		c22.3-1.7,40.4-6.4,54.7-11.1c13.8-4.5,22.4-8.1,23.8-6.1c1.3,1.9-5,9.5-18.6,17.5c-13.8,8.1-34,15.6-58.6,17.4c-0.1,0-0.2,0-0.3,0
		c-24.9,1.8-45.9-3.1-60.8-9.9C35.6-270.5,28.9-277.8,30-279.8L30-279.8z"/>
	<path id="path224" fill="#FF6A64" d="M183.1-324.8c0,24.6-37,20.1-82.6,20.1s-82.6,3.6-82.6-20.1c0-11.1,37-20.1,82.6-20.1
		S183.1-335.9,183.1-324.8z"/>
	<ellipse id="ellipse224" opacity="0.18" fill="#FFFFFF" cx="100.4" cy="-331.5" rx="63.7" ry="4"/>
</g>
</svg>
