<?xml version="1.0" encoding="utf-8"?>
<!-- Generator: Adobe Illustrator 28.0.0, SVG Export Plug-In . SVG Version: 6.00 Build 0)  -->
<svg version="1.1" id="OBJECTS" xmlns="http://www.w3.org/2000/svg" xmlns:xlink="http://www.w3.org/1999/xlink" x="0px" y="0px"
	 width="500px" height="500px" viewBox="0 0 500 500" enable-background="new 0 0 500 500" xml:space="preserve">
<g id="g115" transform="matrix(1.51608,0,0,1.51608,-73.96084,-0.53544289)">
	<path id="path105" fill="#E22B2B" d="M150.7,26.5c-27.3,26.2-76,110.7-81.9,121.2c-5.9,10.5,27.2,89.1,50.7,131
		c23.5,41.9,94.2,38.9,94.2,38.9s70.6,3,94.2-38.9c23.5-41.9,56.6-120.5,50.7-131c-5.9-10.5-53.7-95.8-81.9-121.2
		c-28.2-25.4-41.9-6.6-63-6.6C192.6,19.9,178.1,0.3,150.7,26.5z"/>
	<path id="path108" opacity="0.23" fill="#7F1C1C" d="M212.2,76.4c-24.8,0.2-44,2.9-66.2,26.3c-22.1,23.4-33.1,31.2-57.8,51.8
		c46.5,113.4,87.2,101.6,124,101.6s77.5,11.8,124-101.6c-9.1-20.6-32.5-28.4-54.7-51.8C259.4,79.3,238,76.2,212.2,76.4z"/>
	<path id="path111" opacity="0.18" fill="#FFFFFF" d="M184.2,36.8c0,1.2-4.2,2-10.2,4.4c-6.3,2.5-14,6.7-21.8,14.2v0
		c-3.1,3-6.1,6.3-8.9,10c-5.1,6.8-8.8,13.8-11.5,20.4l0,0c-2.5,6.1-6.9,10.4-9.5,13c-5.6,6.1-7,10.3-8.3,10.3c-1.4,0-3-6.2,2.8-14.7
		c2-3.3,5.5-8,6.3-11.6l0,0c2.2-7.7,6-16,11.9-23.8c3.2-4.2,6.8-8,10.5-11.2v0C165.8,30,184.2,35.2,184.2,36.8L184.2,36.8z"/>
	<path id="path112" opacity="0.18" fill="#FFFFFF" d="M236.9,41.9c-1.3-1.8,4.3-13.2,20.9-11.2l0,0c4.5,1,8.6,3.3,11.8,6.6
		c1.4,1.4,2.6,3,3.6,4.5c3.5,5.2,6.1,11.3,7.5,14.7c1.2,2.6,1.4,3.5,2.4,5.2c0.9,1.4,2.3,3.7,2.3,4c0,0.6-2.3,2.7-6.1,0
		c-1.9-1.2-3.6-2.9-5.3-5c-3-3.7-5.8-8.5-9.2-12.8c-0.9-1.1-1.9-2.2-2.8-3.2c-2.2-2.3-4.2-3.8-6.3-4.3l0,0
		C247.8,37.1,238.3,43.8,236.9,41.9L236.9,41.9z"/>
	<path id="path114" fill="#7F1C1C" d="M123.3,160.2c9.3,9.3,17.7,24.3,25.1,39.2c7.4,15,22.3,25.7,46.5,31.4
		c24.2,5.7,48.4,7.8,64.2-5.7c15.8-13.6,41-57.8,52.1-63.5c-32.6-20.7-52.1-39.2-75.4-46.4c-23.3-7.1-42.8-6.4-57.7,2.9
		C163.4,127.4,146.6,153.8,123.3,160.2L123.3,160.2z"/>
	<path id="path115" opacity="0.18" fill="#FFFFFF" d="M130.6,249.5c3.4-1.2,8.3,2.7,16.8,5.3c4.2,1.3,9.6,2.3,16.8,5l0,0
		c12.7,4.2,27.5,7.9,44.7,9.5c5.5,0.5,10.8,0.8,16,0.8l0,0c18.3-0.2,31.7-2.7,43.2-5.9c10.6-3,17.9-6.1,20.6-3.3
		c2.5,2.5,0.1,11-10.7,20.5c-10.9,9.5-28.9,18.2-51.9,19.5l0,0c-6.4,0.5-13.1,0.4-20-0.2c-21.5-2-39.7-9.2-53.2-18.1l0,0
		c-5.8-4-10.6-6.8-15.7-11.6C125,260.1,128.2,250.3,130.6,249.5L130.6,249.5z"/>
</g>
</svg>
