<?xml version="1.0" encoding="utf-8"?>
<!-- Generator: Adobe Illustrator 28.0.0, SVG Export Plug-In . SVG Version: 6.00 Build 0)  -->
<svg version="1.1" id="OBJECTS" xmlns="http://www.w3.org/2000/svg" xmlns:xlink="http://www.w3.org/1999/xlink" x="0px" y="0px"
	 width="500px" height="500px" viewBox="0 0 500 500" enable-background="new 0 0 500 500" xml:space="preserve">
<g id="g305" transform="matrix(1.51608,0,0,1.51608,-73.96084,313.9878)">
	<path id="path300" fill="#E22B2B" d="M152-178.2C125.2-152.5,77.5-69.7,71.7-59.4C65.9-49.1,98.3,27.9,121.4,69
		c23.1,41.1,92.3,38.1,92.3,38.1S282.9,110,306,69C329,27.9,361.5-49.1,355.7-59.4c-5.8-10.3-52.7-93.9-80.3-118.8
		c-27.6-24.9-41-6.5-61.7-6.5C193-184.6,178.8-203.9,152-178.2z"/>
	<path id="path301" opacity="0.23" fill="#7F1C1C" d="M212.3-129.3c-24.3,0.2-43.1,2.9-64.8,25.8C125.7-80.5,115-72.9,90.8-52.7
		c45.6,111.1,85.4,99.6,121.5,99.6s75.9,11.6,121.5-99.6c-8.9-20.2-31.9-27.8-53.6-50.7C258.5-126.4,237.5-129.4,212.3-129.3z"/>
	<path id="path302" opacity="0.18" fill="#FFFFFF" d="M184.8-168.1c0,1.2-4.1,1.9-10,4.3c-6.2,2.5-13.7,6.6-21.4,13.9v0
		c-3,2.9-6,6.2-8.7,9.8c-5,6.7-8.7,13.5-11.2,20l0,0c-2.4,6-6.8,10.2-9.3,12.7c-5.5,5.9-6.8,10.1-8.1,10.1c-1.4,0-2.9-6,2.7-14.4
		c2-3.2,5.4-7.8,6.1-11.3l0,0c2.1-7.6,5.9-15.7,11.6-23.3c3.1-4.2,6.6-7.8,10.2-10.9v0C166.8-174.8,184.8-169.7,184.8-168.1
		L184.8-168.1z"/>
	<path id="path303" opacity="0.18" fill="#FFFFFF" d="M236.5-163c-1.3-1.8,4.2-12.9,20.5-11l0,0c4.5,0.9,8.4,3.2,11.6,6.5
		c1.4,1.4,2.6,2.9,3.5,4.4c3.5,5.1,5.9,11.1,7.4,14.4c1.2,2.6,1.4,3.4,2.3,5.1c0.9,1.4,2.3,3.7,2.3,3.9c0,0.6-2.2,2.6-6,0
		c-1.9-1.1-3.6-2.8-5.2-4.9c-2.9-3.6-5.7-8.4-9-12.6c-0.9-1.1-1.8-2.1-2.7-3.1c-2.1-2.2-4.1-3.8-6.2-4.2l0,0
		C247.2-167.8,237.8-161.2,236.5-163L236.5-163z"/>
	<path id="path304" fill="#7F1C1C" d="M129.6-47.1c4.8,9.1,48,23.8,51.9,38.5s11.6,25.2,24.2,30.8c12.6,5.6,25.1,7.7,33.4-5.6
		c8.2-13.3,15.7-47.8,70.4-62.2c-51.3-5.9-59.3-30.7-82.5-45.5c-11.8-7.5-22.2-6.3-30,2.8C189.2-79.3,180.7-47.1,129.6-47.1z"/>
	<path id="path305" opacity="0.18" fill="#FFFFFF" d="M132.2,40.3c3.3-1.2,8.1,2.6,16.4,5.2c4.1,1.3,9.4,2.3,16.5,4.9l0,0
		c12.5,4.1,26.9,7.8,43.8,9.3c5.4,0.5,10.6,0.7,15.7,0.8l0,0c17.9-0.2,31.1-2.6,42.3-5.8c10.4-2.9,17.5-5.9,20.2-3.3
		c2.5,2.5,0.1,10.8-10.5,20.1c-10.6,9.3-28.4,17.9-50.9,19.1l0,0c-6.3,0.4-12.9,0.4-19.6-0.2c-21-1.9-38.9-9-52.2-17.7l0,0
		c-5.6-3.9-10.4-6.7-15.4-11.4C126.8,50.7,129.9,41.2,132.2,40.3L132.2,40.3z"/>
</g>
</svg>
