<?xml version="1.0" encoding="utf-8"?>
<!-- Generator: Adobe Illustrator 28.0.0, SVG Export Plug-In . SVG Version: 6.00 Build 0)  -->
<svg version="1.1" id="OBJECTS" xmlns="http://www.w3.org/2000/svg" xmlns:xlink="http://www.w3.org/1999/xlink" x="0px" y="0px"
	 width="500px" height="500px" viewBox="0 0 500 500" enable-background="new 0 0 500 500" xml:space="preserve">
<g id="g196" transform="matrix(1.2397384,0,0,1.2397384,-31.362108,655.87303)">
	<path id="path180" fill="#E22B2B" d="M186.2-434.3c-8.3,0-30.8,5.1-43,10.2c-37.8,15.8-71,30.5-102.5,54.5c-1.4,1-2,2.8-1.5,4.4
		c16.4,58.9,70.2,121.5,104.7,134.2c35,13,55.4,10.2,83.1,10.2c27.7,0,48,2.7,83-10.2c34.6-12.8,88.5-75.6,104.8-134.6
		c0.4-1.5,0-3.1-1.2-4.1c-33.1-31.2-74.4-45.3-112.7-58.2c-38.5-13-42.8-2.6-74-2.6C207.5-430.4,199.9-434.3,186.2-434.3z"/>
	<path id="path181" opacity="0.23" fill="#7F1C1C" d="M227-387.1c-65.8,0-163,2.3-175,27.5c34.5,68,107,79.3,175,79.3
		c68.1,0,148.6-16.7,175-79.3C382-390.1,292.8-387.1,227-387.1z"/>
	<g>
		<defs>
			<path id="SVGID_00000114072128918876115750000015897911991523589523_" d="M227-359c-15.1,0-30.3-8.5-45.2-8
				c-47.7,1.6-92.6-1.7-123.4,7.4C110.6-307.8,227-312,227-312s119.3,1.7,168.6-47.7c-25.6-8-78.9-5.7-132.1-7.5
				C251.2-367.5,238.9-359,227-359z"/>
		</defs>
		<clipPath id="SVGID_00000121278563986869772240000007084782200475497372_">
			<use xlink:href="#SVGID_00000114072128918876115750000015897911991523589523_"  overflow="visible"/>
		</clipPath>
		<g id="g193" clip-path="url(#SVGID_00000121278563986869772240000007084782200475497372_)">
			<path id="path182" fill="#7F1C1C" d="M227-426.2c-63.6,0-166.1,29.8-181.7,68.7C94.6-266.7,227-261.5,227-261.5
				s132.3-5.2,181.7-95.9C393.1-396.4,290.6-426.2,227-426.2L227-426.2z"/>
			<path id="path183" fill="#FF6A64" d="M225.7-352.3c-57.2,0-84.1,1.3-111,22c-26.9,20.7-25.2,80.4-25.2,80.4h136.3h136.2
				c0,0,1.7-59.6-25.2-80.4C309.8-351,282.8-352.3,225.7-352.3z"/>
			<path id="path184" fill="#EFEFEF" d="M226.8-406.3c0,0-90.8,0.9-109.2,8.2s-52.1,30.5-52.1,30.5c-2.1,15,26.8,29,44.7,15.4
				c18.4,23.8,35.8,11,47.7,6.4c25.7,20.2,56,12.8,68.8,2.8c12.8,10.1,43.1,17.4,68.8-2.8c11.9,4.6,29.4,17.4,47.7-6.4
				c18.4,15.5,48.9-0.1,45.8-16.4c0,0-34.8-22.1-53.2-29.4C317.6-405.4,226.8-406.3,226.8-406.3z"/>
			<path id="path185" fill="#FFFFFF" d="M206.3-388.1c-18.2,2.6-29.2,2.6-33.7,13c-4.5,10.4-7.1,23.3,5.8,29.8c13,6.5,26,8.4,35-0.6
				C222.5-355,221.2-390,206.3-388.1z"/>
			<path id="path186" fill="#FFFFFF" d="M147.9-378.3c-13.6,3.2-25.3,9.1-29.8,16.2c-4.5,7.1,1.9,18.2,13.6,16.9
				c11.7-1.3,16.2,2.6,20.1-6.5S160.2-380.2,147.9-378.3L147.9-378.3z"/>
			<path id="path187" fill="#FFFFFF" d="M306.3-378.3c13.6,3.2,25.3,9.1,29.8,16.2c4.5,7.1-1.9,18.2-13.6,16.9
				c-11.7-1.3-16.2,2.6-20.1-6.5C298.5-360.8,293.9-380.2,306.3-378.3L306.3-378.3z"/>
			<path id="path188" fill="#FFFFFF" d="M246.4-388.1c18.2,2.6,29.2,2.6,33.7,13c4.5,10.4,7.1,23.3-5.8,29.8c-13,6.5-26,8.4-35-0.6
				C230.2-355,231.5-390,246.4-388.1z"/>
			<path id="path189" fill="#EFEFEF" d="M226.8-289.4c0,0-90.8-0.6-109.2-5.2s-50.5-26-50.5-26s25.7-9.3,43.1-2.9
				c18.4-15,35.8-6.9,47.7-4c25.7-12.7,56-8.1,68.8-1.7c12.8-6.4,43.1-11,68.8,1.7c11.9-2.9,29.4-11,47.7,4
				c17.4-6.4,43.1,2.9,43.1,2.9s-32.1,21.4-50.5,26C317.6-290,226.8-289.4,226.8-289.4z"/>
			<path id="path190" fill="#FFFFFF" d="M206.3-300.9c-18.2-1.6-29.2-1.6-33.7-8.2s-7.1-14.7,5.8-18.8c13-4.1,26-5.3,35,0.4
				C222.5-321.8,221.2-299.7,206.3-300.9z"/>
			<path id="path191" fill="#FFFFFF" d="M147.9-307.1c-13.6-2-25.3-5.7-29.8-10.2c-4.5-4.5,1.9-11.5,13.6-10.6s16.2-1.6,20.1,4.1
				C155.7-318.1,160.2-305.9,147.9-307.1z"/>
			<path id="path192" fill="#FFFFFF" d="M306.3-307.1c13.6-2,25.3-5.7,29.8-10.2c4.5-4.5-1.9-11.5-13.6-10.6
				c-11.7,0.8-16.2-1.6-20.1,4.1C298.5-318.1,293.9-305.9,306.3-307.1z"/>
			<path id="path193" fill="#FFFFFF" d="M246.4-300.9c18.2-1.6,29.2-1.6,33.7-8.2s7.1-14.7-5.8-18.8c-13-4.1-26-5.3-35,0.4
				C230.2-321.8,231.5-299.7,246.4-300.9z"/>
		</g>
	</g>
	<path id="path194" opacity="0.18" fill="#FFFFFF" d="M101.8-396.4c-0.2-0.9,5-3.1,13.4-6.6c4.4-1.8,24-10.1,33-13.7
		c3.4-1.3,6.8-2.6,10.1-3.7l0,0c8.7-3.1,15.9-5,23.1-5.4c12.3-0.9,16.9,5.3,16.4,5.9c-0.6,0.8-6.3-2.3-15.9-0.8
		c-6.7,1.2-12.6,3.3-21.3,6.7l0,0c-3.3,1.3-6.4,2.5-9.9,3.8c-13.9,5.4-24,9.2-34,11.8C107.8-396,102-395.4,101.8-396.4z"/>
	<path id="path195" opacity="0.18" fill="#FFFFFF" d="M238.8-417.9c-0.1-0.9,4.3-2.5,11.8-4.1c7.3-1.5,18.3-3.2,30-2.5
		c0.5,0,1,0.1,1.5,0.1c24.5,2,38.2,15.4,37.4,16.6c-1,1.6-16.6-8.1-37.9-9.7c-0.5,0-0.9-0.1-1.4-0.1c-10.5-0.7-22,0.1-28.9,0.4
		C243.7-416.8,238.9-416.9,238.8-417.9z"/>
	<path id="path196" opacity="0.18" fill="#FFFFFF" d="M147.9-274.7c1.3-2.3,11.1,1.1,26.6,4.4c16.2,3.5,36.3,6.1,61.1,4.4
		c0,0,0.3,0,0.3,0c24.6-1.8,44.4-7.1,60.2-12.2c15.2-4.9,24.7-8.9,26.2-6.7c1.4,2.1-5.5,10.4-20.5,19.2
		c-15.2,8.9-37.4,17.2-64.4,19.2c-0.1,0-0.2,0-0.4,0c-27.3,2-50.5-3.4-66.9-10.9C154.1-264.5,146.7-272.6,147.9-274.7L147.9-274.7z"
		/>
</g>
</svg>
