<?xml version="1.0" encoding="utf-8"?>
<!-- Generator: Adobe Illustrator 28.0.0, SVG Export Plug-In . SVG Version: 6.00 Build 0)  -->
<svg version="1.1" id="OBJECTS" xmlns="http://www.w3.org/2000/svg" xmlns:xlink="http://www.w3.org/1999/xlink" x="0px" y="0px"
	 width="500px" height="500px" viewBox="0 0 500 500" enable-background="new 0 0 500 500" xml:space="preserve">
<g id="g297" transform="matrix(1.2397384,0,0,1.2397384,429.11463,799.90454)">
	<path id="path282" fill="#E22B2B" d="M-185.3-545.2c-14.7,1-30.9,5.1-43.1,10.2c-38.1,15.9-73.2,49.2-103.4,89.1
		c-0.9,1.2-1.2,2.7-0.8,4.1c22.4,82.2,87.9,100,188.1,100c100.3,0,165.8-17.9,188.1-100.3c0.3-1.2,0.2-2.5-0.5-3.6
		c-23.5-40.6-75.1-79.9-113.7-92.9c-38.6-13-42.9-2.6-74-2.6C-164-541.3-171.7-546.1-185.3-545.2z"/>
	<path id="path283" opacity="0.23" fill="#7F1C1C" d="M-144.5-494.2c-65.9,0-163.2,27.2-175.2,52.4c34.5,68.1,107.1,50.2,175.2,50.2
		c68.1,0,148.7,12.5,175.2-50.2C10.7-472.4-78.6-494.2-144.5-494.2z"/>
	<g>
		<defs>
			<path id="SVGID_00000067937962581606028320000001081878846806857863_" d="M-144.5-479.6c-63.6,0-128.2,24.3-168.8,36.2
				c49.8,70.3,112.2,33.6,168.8,33.6c56.5,0,116.9,36.8,168.8-33.6C-7.2-453.2-80.8-479.6-144.5-479.6z"/>
		</defs>
		<clipPath id="SVGID_00000091004727026428952750000001016489978717885842_">
			<use xlink:href="#SVGID_00000067937962581606028320000001081878846806857863_"  overflow="visible"/>
		</clipPath>
		<g id="g295" transform="translate(0,6.0405088)" clip-path="url(#SVGID_00000091004727026428952750000001016489978717885842_)">
			<path fill="#7F1C1C" d="M-144.5-520.9c-63.6,0-166.2,29.8-181.8,68.8c49.4,90.8,181.8,114.5,181.8,114.5S-12-361.3,37.3-452.1
				C21.8-491-80.8-520.9-144.5-520.9z"/>
			<path id="path285" fill="#FF6A64" d="M-145.8-467.3c-57.2,0-84.2,1.3-111.1,22.1c-26.9,20.8-25.2,80.5-25.2,80.5h136.4H-9.4
				c0,0,1.7-59.7-25.2-80.5C-61.6-466-88.5-467.3-145.8-467.3z"/>
			<path id="path286" fill="#EFEFEF" d="M-144.7-521.4c0,0-90.9,0.9-109.3,8.3c-18.4,7.3-52.1,30.5-52.1,30.5
				c-2.1,15,26.8,29.1,44.8,15.4c18.4,23.9,35.8,11,47.7,6.4c25.7,20.2,56,12.9,68.9,2.8c12.9,10.1,43.2,17.4,68.9-2.8
				C-63.9-456.2-37.5-437-21-475c18.5,15.5,41.9,7.7,38.8-8.7c0,0-34.8-22.1-53.2-29.4C-53.8-520.5-144.7-521.4-144.7-521.4z"/>
			<path id="path287" fill="#FFFFFF" d="M-165.2-503.1c-18.2,2.6-29.2,2.6-33.8,13c-4.5,10.4-7.1,23.4,5.8,29.8
				c13,6.5,26,8.4,35.1-0.6C-148.9-470-150.2-505-165.2-503.1z"/>
			<path id="path288" fill="#FFFFFF" d="M-223.6-493.3c-13.6,3.2-25.3,9.1-29.9,16.2c-4.5,7.1,1.9,18.2,13.6,16.9
				c11.7-1.3,16.2,2.6,20.1-6.5C-215.8-475.8-211.3-495.3-223.6-493.3L-223.6-493.3z"/>
			<path id="path289" fill="#FFFFFF" d="M-65.1-493.3c13.6,3.2,25.3,9.1,29.9,16.2c4.5,7.1-1.9,18.2-13.6,16.9
				c-11.7-1.3-16.2,2.6-20.1-6.5C-72.9-475.8-77.4-495.3-65.1-493.3L-65.1-493.3z"/>
			<path id="path290" fill="#FFFFFF" d="M-125-503.1c18.2,2.6,29.2,2.6,33.8,13c4.5,10.4,7.1,23.4-5.8,29.8c-13,6.5-26,8.4-35.1-0.6
				C-141.2-470-139.9-505-125-503.1z"/>
			<path id="path291" fill="#EFEFEF" d="M-144.7-390.8c0,0-103.2,11.7-121.6,7.1c-18.4-4.6-38.2-38.4-38.2-38.4s25.7-9.3,43.2-2.9
				c18.4-15.1,35.8-6.9,47.7-4c25.7-12.7,56-8.1,68.9-1.7c12.9-6.4,43.2-11,68.9,1.7c11.9-2.9,29.4-11,47.7,4
				c17.4-6.4,43.2,2.9,43.2,2.9s-25.4,29.4-43.7,34C-47-383.4-144.7-390.8-144.7-390.8z"/>
			<path id="path292" fill="#FFFFFF" d="M-165.2-402.4c-18.2-1.6-29.2-1.6-33.8-8.2c-4.5-6.6-7.1-14.7,5.8-18.8
				c13-4.1,26-5.3,35.1,0.4C-148.9-423.2-150.2-401.1-165.2-402.4z"/>
			<path id="path293" fill="#FFFFFF" d="M-223.6-408.5c-13.6-2-25.3-5.7-29.9-10.2c-4.5-4.5,1.9-11.5,13.6-10.6
				c11.7,0.8,16.2-1.6,20.1,4.1C-215.8-419.6-211.3-407.3-223.6-408.5z"/>
			<path id="path294" fill="#FFFFFF" d="M-65.1-408.5c13.6-2,25.3-5.7,29.9-10.2s-1.9-11.5-13.6-10.6c-11.7,0.8-16.2-1.6-20.1,4.1
				C-72.9-419.6-77.4-407.3-65.1-408.5z"/>
			<path id="path295" fill="#FFFFFF" d="M-125-402.4c18.2-1.6,29.2-1.6,33.8-8.2c4.5-6.6,7.1-14.7-5.8-18.8c-13-4.1-26-5.3-35.1,0.4
				C-141.2-423.2-139.9-401.1-125-402.4z"/>
		</g>
	</g>
	<path id="path296" opacity="0.18" fill="#FFFFFF" d="M-132.7-531.2c-0.1-0.9,4.3-2.5,11.9-4.1c7.3-1.5,18.3-3.2,30-2.5
		c0.5,0,1,0.1,1.5,0.1c24.6,2,38.2,15.4,37.4,16.6c-1,1.6-16.6-8.1-38-9.7c-0.5,0-0.9-0.1-1.4-0.1c-10.5-0.7-22,0.1-29,0.4
		C-127.7-530.1-132.5-530.3-132.7-531.2z"/>
	<path id="path297" opacity="0.18" fill="#FFFFFF" d="M-185-533.2c0-2.6-8.5-4.5-21.2-1.9c-7.1,1.4-15.2,4-23.5,8.1
		c-0.3,0.2-0.7,0.3-1,0.5c-8.5,4.3-15.5,9.3-20.8,14.7c-9.5,9.1-10.2,17.8-8,18.6c0.9,0.3,6.8-4.7,14.8-10.4
		c5.8-3.8,11.7-7.1,19.9-11.2c0.3-0.2,0.6-0.3,0.9-0.5c7.8-3.9,14.4-6.7,20.8-9.4C-192.7-528.8-185.1-531.5-185-533.2z"/>
</g>
</svg>
