<?xml version="1.0" encoding="UTF-8"?>
<svg width="400" height="400" viewBox="0 0 400 400" xmlns="http://www.w3.org/2000/svg">
  <!-- Brain base -->
  <path d="M200,100 
           C 300,100 350,200 300,250
           C 350,300 300,350 200,350
           C 100,350 50,300 100,250
           C 50,200 100,100 200,100" 
        fill="#FFA5B9" stroke="#FF69B4" stroke-width="3"/>
  
  <!-- Brain details -->
  <path d="M150,150 Q180,120 210,150" fill="none" stroke="#FF69B4" stroke-width="3"/>
  <path d="M150,200 Q180,170 210,200" fill="none" stroke="#FF69B4" stroke-width="3"/>
  <path d="M150,250 Q180,220 210,250" fill="none" stroke="#FF69B4" stroke-width="3"/>
  <path d="M150,300 Q180,270 210,300" fill="none" stroke="#FF69B4" stroke-width="3"/>
  
  <!-- Headphones -->
  <path d="M100,200 Q50,200 50,250 L50,300 Q50,320 70,320 L90,320 Q110,320 110,300 L110,280 Q110,260 90,260 L70,260"
        fill="none" stroke="#FF8C00" stroke-width="8"/>
  <path d="M300,200 Q350,200 350,250 L350,300 Q350,320 330,320 L310,320 Q290,320 290,300 L290,280 Q290,260 310,260 L330,260"
        fill="none" stroke="#FF8C00" stroke-width="8"/>
  
  <!-- Headband -->
  <path d="M100,200 Q200,100 300,200"
        fill="none" stroke="#FF8C00" stroke-width="8"/>
</svg> 