<?xml version="1.0" encoding="utf-8"?>
<!-- Generator: Adobe Illustrator 28.0.0, SVG Export Plug-In . SVG Version: 6.00 Build 0)  -->
<svg version="1.1" id="OBJECTS" xmlns="http://www.w3.org/2000/svg" xmlns:xlink="http://www.w3.org/1999/xlink" x="0px" y="0px"
	 width="500px" height="500px" viewBox="0 0 500 500" enable-background="new 0 0 500 500" xml:space="preserve">
<g id="g134" transform="matrix(1.2397384,0,0,1.2397384,270.62511,503.10461)">
	<path id="path116" fill="#E22B2B" d="M-59.3-313.2c-7.8,0-16.3,1.6-27.4,6.7C-116-293.1-175.4-275-210-244.8
		c-0.5,0.5-0.7,1.2-0.5,1.8c16.5,56.3,82.2,125.8,115.2,138c33.2,12.3,52.4,9.7,78.7,9.7c26.2,0,45.5,2.6,78.7-9.7
		c33-12.2,98.7-81.7,115.2-138c0.2-0.7,0-1.4-0.5-1.8c-34.5-30.3-94-48.4-123.3-61.8C23.9-320,12.9-309-16.6-309
		C-35.1-309-46.3-313.3-59.3-313.2L-59.3-313.2z"/>
	<path id="path117" opacity="0.23" fill="#7F1C1C" d="M-16.6-270.4c-62.4,0-165.9,10.4-178.2,34.2c35.1,64.4,113.7,83.3,178.2,83.3
		c64.5,0,151.2-24,178.1-83.3C141.1-265.1,45.7-270.4-16.6-270.4z"/>
	<g>
		<defs>
			<path id="SVGID_1_" d="M-16.6-251.3c-60.2,0-130.8,3.7-172.1,15.1c50.8,66.6,172.1,72.5,172.1,72.5s119.2-5.9,172.1-72.5
				C123.3-245.5,43.6-251.3-16.6-251.3z"/>
		</defs>
		<clipPath id="SVGID_00000027602911807927647980000009036470016270006657_">
			<use xlink:href="#SVGID_1_"  overflow="visible"/>
		</clipPath>
		<g id="g131" clip-path="url(#SVGID_00000027602911807927647980000009036470016270006657_)">
			<path id="path118" fill="#7F1C1C" d="M-16.6-299.3c-60.2,0-157.3,28.2-172.1,65.1c46.7,86,172.1,90.9,172.1,90.9
				s125.4-4.9,172.1-90.9C140.7-271,43.6-299.3-16.6-299.3L-16.6-299.3z"/>
			<path id="path119" fill="#FF6A64" d="M-17.9-229.3c-54.2,0-79.7,1.2-105.2,20.9c-25.5,19.6-23.9,76.1-23.9,76.1h129.1h129
				c0,0,1.6-56.5-23.9-76.1C61.8-228.1,36.3-229.3-17.9-229.3z"/>
			<path id="path120" fill="#EFEFEF" d="M-16.8-280.4c0,0-86,0.9-103.4,7.8c-17.4,6.9-49.3,28.9-49.3,28.9
				c-2,14.2,25.4,27.5,42.4,14.6c17.4,22.6,33.9,10.4,45.2,6.1c24.3,19.1,53,12.2,65.2,2.6C-4.7-211,24-204,48.4-223.1
				c11.3,4.3,27.8,16.5,45.2-6.1c17.5,14.7,46.3-0.1,43.4-15.6c0,0-33-20.9-50.3-27.8C69.2-279.6-16.8-280.4-16.8-280.4z"/>
			<path id="path122" fill="#FFFFFF" d="M-36.2-263.1c-17.2,2.5-27.7,2.5-32,12.3c-4.3,9.8-6.8,22.1,5.5,28.2
				c12.3,6.1,24.6,8,33.2-0.6C-20.8-231.8-22.1-265-36.2-263.1z"/>
			<path id="path123" fill="#FFFFFF" d="M-91.5-253.9c-12.9,3.1-24,8.6-28.3,15.3s1.8,17.2,12.9,16c11.1-1.2,15.4,2.5,19.1-6.1
				C-84.2-237.3-79.9-255.7-91.5-253.9L-91.5-253.9z"/>
			<path id="path127" fill="#FFFFFF" d="M58.5-253.9c12.9,3.1,24,8.6,28.3,15.3s-1.8,17.2-12.9,16c-11.1-1.2-15.4,2.5-19.1-6.1
				C51.1-237.3,46.8-255.7,58.5-253.9L58.5-253.9z"/>
			<path id="path128" fill="#FFFFFF" d="M1.8-263.1c17.2,2.5,27.7,2.5,32,12.3c4.3,9.8,6.8,22.1-5.5,28.2c-12.3,6.1-24.6,8-33.2-0.6
				C-13.6-231.8-12.4-265,1.8-263.1z"/>
			<path id="path139" fill="#EFEFEF" d="M-16.8-132.4c0,0-86-0.9-103.4-7.8s-47.8-39.1-47.8-39.1s24.3-13.9,40.8-4.3
				c17.4-22.6,33.9-10.4,45.2-6.1c24.3-19.1,53-12.2,65.2-2.6c12.2-9.6,40.8-16.5,65.2,2.6c11.3-4.3,27.8-16.5,45.2,6.1
				c16.5-9.6,40.8,4.3,40.8,4.3s-30.4,32.1-47.8,39.1C69.2-133.3-16.8-132.4-16.8-132.4z"/>
			<path id="path140" fill="#FFFFFF" d="M-36.2-149.7c-17.2-2.5-27.7-2.5-32-12.3c-4.3-9.8-6.8-22.1,5.5-28.2
				c12.3-6.1,24.6-8,33.2,0.6C-20.8-181-22.1-147.9-36.2-149.7z"/>
			<path id="path141" fill="#FFFFFF" d="M-91.5-159c-12.9-3.1-24-8.6-28.3-15.3c-4.3-6.8,1.8-17.2,12.9-16
				c11.1,1.2,15.4-2.5,19.1,6.1C-84.2-175.6-79.9-157.1-91.5-159L-91.5-159z"/>
			<path id="path142" fill="#FFFFFF" d="M58.5-159c12.9-3.1,24-8.6,28.3-15.3c4.3-6.8-1.8-17.2-12.9-16c-11.1,1.2-15.4-2.5-19.1,6.1
				C51.1-175.6,46.8-157.1,58.5-159L58.5-159z"/>
			<path id="path143" fill="#FFFFFF" d="M1.8-149.7c17.2-2.5,27.7-2.5,32-12.3c4.3-9.8,6.8-22.1-5.5-28.2c-12.3-6.1-24.6-8-33.2,0.6
				S-12.4-147.9,1.8-149.7z"/>
		</g>
	</g>
	<path id="path132" opacity="0.18" fill="#FFFFFF" d="M-135.2-276.2c-0.2-0.9,4.8-3,12.7-6.3c4.2-1.7,22.7-9.6,31.3-12.9
		c3.3-1.3,6.4-2.5,9.6-3.5l0,0c8.3-2.9,15-4.8,21.9-5.1c11.7-0.8,16,5,15.6,5.6c-0.6,0.8-6-2.2-15-0.7c-6.3,1.1-11.9,3.1-20.2,6.3
		l0,0c-3.1,1.2-6.1,2.3-9.4,3.6c-13.2,5.1-22.8,8.7-32.2,11.2C-129.5-275.9-135-275.4-135.2-276.2z"/>
	<path id="path133" opacity="0.18" fill="#FFFFFF" d="M-5.5-296.6c-0.1-0.9,4.1-2.4,11.2-3.9c6.9-1.5,17.3-3,28.4-2.3
		c0.5,0,1,0.1,1.4,0.1c23.2,1.9,36.1,14.6,35.4,15.7c-1,1.5-15.7-7.7-35.9-9.2c-0.4,0-0.9-0.1-1.3-0.1c-10-0.7-20.8,0.1-27.4,0.4
		C-0.8-295.6-5.3-295.7-5.5-296.6z"/>
	<path id="path134" opacity="0.18" fill="#FFFFFF" d="M-91.5-155.8c1.3-2.2,10.5,1,25.2,4.2c15.4,3.3,34.4,5.8,57.8,4.2
		c0,0,0.3,0,0.3,0c23.3-1.7,42.1-6.7,57-11.6c14.4-4.7,23.4-8.4,24.8-6.3c1.3,2-5.2,9.9-19.4,18.2c-14.4,8.4-35.4,16.3-61,18.2
		c-0.1,0-0.2,0-0.3,0C-33-127-55-132.2-70.5-139.2C-85.6-146.1-92.6-153.8-91.5-155.8L-91.5-155.8z"/>
</g>
</svg>
