<?xml version="1.0" encoding="utf-8"?>
<!-- Generator: Adobe Illustrator 28.0.0, SVG Export Plug-In . SVG Version: 6.00 Build 0)  -->
<svg version="1.1" id="OBJECTS" xmlns="http://www.w3.org/2000/svg" xmlns:xlink="http://www.w3.org/1999/xlink" x="0px" y="0px"
	 width="500px" height="500px" viewBox="0 0 500 500" enable-background="new 0 0 500 500" xml:space="preserve">
<g id="g174" transform="matrix(1.2397384,0,0,1.2397384,429.11463,503.10461)">
	<path id="path158" fill="#E22B2B" d="M-187.1-298c-7.8,0-16.3,1.6-27.3,6.7c-28.9,13.2-87.3,31.1-122,60.7
		c-1.3,1.1-1.7,2.8-1.2,4.3c17.2,55.1,82,94,114.7,106.1c33.2,12.3,52.4,9.7,78.6,9.7c26.2,0,45.4,2.6,78.6-9.7
		c32.6-12.1,97.4-51,114.7-106.1c0.5-1.6,0-3.3-1.2-4.3c-34.7-29.6-93.1-47.5-122-60.7c-29.5-13.5-40.5-2.4-70-2.4
		C-162.9-293.8-174.1-298.1-187.1-298L-187.1-298z"/>
	<path id="path159" opacity="0.23" fill="#7F1C1C" d="M-144.5-237.5c-22.6,0-23.1-8.6-50.2-7.7c-47.6,1.6-120,14.6-127.8,26.2
		c46.6,34.1,113.6,40.9,178,40.9c64.4,0,139.6-8.5,178-40.9c-13-14.2-76-26.5-122.1-27.2C-114.6-246.7-122-237.5-144.5-237.5z"/>
	<path id="path172" opacity="0.18" fill="#FFFFFF" d="M-262.9-261c-0.2-0.9,4.8-3,12.7-6.3c4.2-1.7,22.7-9.6,31.3-12.9
		c3.3-1.3,6.4-2.5,9.6-3.5l0,0c8.3-2.9,15-4.8,21.9-5.1c11.7-0.8,16,5,15.6,5.6c-0.6,0.8-6-2.2-15-0.7c-6.3,1.1-11.9,3.1-20.2,6.3
		l0,0c-3.1,1.2-6.1,2.3-9.4,3.6c-13.2,5.1-22.8,8.7-32.1,11.2C-257.3-260.7-262.7-260.2-262.9-261z"/>
	<path id="path173" opacity="0.18" fill="#FFFFFF" d="M-133.3-281.4c-0.1-0.9,4.1-2.4,11.2-3.9c6.9-1.5,17.3-3,28.4-2.3
		c0.5,0,0.9,0.1,1.4,0.1c23.2,1.9,36.1,14.6,35.4,15.7c-1,1.5-15.7-7.7-35.9-9.2c-0.4,0-0.9-0.1-1.3-0.1c-10-0.6-20.8,0.1-27.4,0.4
		C-128.7-280.4-133.2-280.5-133.3-281.4z"/>
	<path id="path174" opacity="0.18" fill="#FFFFFF" d="M-219.3-162.3c1.3-2.2,10.5,1,25.2,4.2c15.3,3.3,34.4,5.8,57.8,4.2
		c0,0,0.3,0,0.3,0c23.2-1.7,42-6.7,56.9-11.6c14.3-4.7,23.4-8.4,24.8-6.3c1.3,2-5.2,9.9-19.4,18.2c-14.4,8.4-35.4,16.3-61,18.1
		c-0.1,0-0.2,0-0.3,0c-25.9,1.9-47.8-3.2-63.3-10.3C-213.4-152.7-220.4-160.3-219.3-162.3L-219.3-162.3z"/>
	<path id="path179" fill="#7F1C1C" d="M-303.5-218.3c0,0,79.4-13,105.4-11.5c26,1.4,47.6,13,73.6,8.7s33.2-10.1,53.4-7.2
		c20.2,2.9,92.4,11.5,92.4,11.5s-79.4,17.3-171.8,15.9C-242.9-202.5-303.5-218.3-303.5-218.3L-303.5-218.3z"/>
</g>
</svg>
