<?xml version="1.0" encoding="utf-8"?>
<!-- Generator: Adobe Illustrator 28.0.0, SVG Export Plug-In . SVG Version: 6.00 Build 0)  -->
<svg version="1.1" id="OBJECTS" xmlns="http://www.w3.org/2000/svg" xmlns:xlink="http://www.w3.org/1999/xlink" x="0px" y="0px"
	 width="500px" height="500px" viewBox="0 0 500 500" enable-background="new 0 0 500 500" xml:space="preserve">
<path id="path225" fill="#E22B2B" d="M146.8,42.8C110,83.9,62.7,193.1,54.8,209.5s36.6,140.1,68.4,206
	c31.7,65.9,126.9,61.2,126.9,61.2s95.2,4.7,126.9-61.2c31.7-65.9,76.3-189.5,68.4-206c-8-16.5-55.6-128.6-93.6-168.6
	c-38-40-67.8,0-101.7,0.3C215.6,41.6,181.7,10.7,146.8,42.8L146.8,42.8z"/>
<path id="path226" opacity="0.23" fill="#7F1C1C" d="M247.7,97.4c-34,0.3-60.3,4.6-90.6,41.4c-30.3,36.8-45.3,49.1-79.2,81.4
	C141.6,398.6,197.3,380,247.7,380s106.1,18.6,169.7-159.7c-12.4-32.3-44.6-44.6-74.9-81.4C312.3,102,282.9,97.2,247.7,97.4z"/>
<path id="path227" opacity="0.18" fill="#FFFFFF" d="M205.9,49.3c0.2,2.3-8.8,4.3-21.3,10.8c-13.4,7-27.4,17.5-43.4,34.6
	c-0.2,0.2-0.4,0.4-0.6,0.6c-15.6,17.2-25.5,32.7-32.7,46.4c-6.9,12.9-10.3,21.7-12.5,21.3c-2-0.4-2.9-10.3,1.7-25.6
	c4.7-15.7,14.5-34.7,31.3-53.1c0.2-0.2,0.4-0.5,0.6-0.7c16.8-18.7,35.3-29.6,51.4-34.1C196,45,205.8,47.3,205.9,49.3L205.9,49.3z"/>
<path id="path228" opacity="0.18" fill="#FFFFFF" d="M300.3,54.4c-2.1-2.9,6.8-20.7,32.8-17.6l0,0c7.1,1.5,13.5,5.2,18.6,10.3
	c2.2,2.3,4.1,4.7,5.6,7.1c5.5,8.1,9.5,17.7,11.8,23.1c1.9,4.1,2.3,5.5,3.7,8.1c1.4,2.3,3.7,5.9,3.7,6.3c0,0.9-3.6,4.2-9.7,0
	c-3-1.8-5.7-4.5-8.4-7.8c-4.7-5.7-9.2-13.4-14.4-20.1c-1.4-1.7-2.9-3.4-4.4-5c-3.4-3.6-6.6-6-9.9-6.8l0,0
	C317.4,46.8,302.4,57.3,300.3,54.4L300.3,54.4z"/>
<path id="path229" fill="#7F1C1C" d="M107.9,229.2c14.6,14.6,27.8,38.1,39.5,61.7c11.7,23.6,35.1,40.4,73.2,49.4
	c38.1,9,76.1,12.3,101-9c24.9-21.3,64.4-90.9,82-99.9c-51.2-32.5-82-61.7-118.6-72.9c-36.6-11.2-67.3-10.1-90.7,4.5
	C170.9,177.6,144.5,219.1,107.9,229.2L107.9,229.2z"/>
<path id="path230" opacity="0.18" fill="#FFFFFF" d="M141.3,369.5c3.4-1.5,8.1,3.3,15,8.5c8.9,6.8,15.6,10.3,30.9,18.2
	c14.6,6.7,31.1,9.8,52.1,10.2c8.4,0.2,17-0.1,25-0.5l0,0c25.9-3.1,40.4-5.7,55.8-11.6c12.9-5,21.6-10.8,25.3-7
	c3.5,3.5,1.4,17-12,32.7c-13.7,15.9-36.3,29.7-65,33.7l0,0c-9.4,1.8-19.5,2.9-30,2.6c-25.8-0.7-48.8-9.1-66.9-22.7
	c-16.5-11.7-26.8-27.8-31.1-41.1C136.1,379.2,138,371,141.3,369.5L141.3,369.5z"/>
<g>
	<defs>
		<path id="SVGID_1_" d="M107.9,229.2c14.6,14.6,27.8,38.1,39.5,61.7c11.7,23.6,35.1,40.4,73.2,49.4c38.1,9,76.1,12.3,101-9
			c24.9-21.3,64.4-90.9,82-99.9c-51.2-32.5-82-61.7-118.6-72.9c-36.6-11.2-67.3-10.1-90.7,4.5C170.9,177.6,144.5,219.1,107.9,229.2z
			"/>
	</defs>
	<clipPath id="SVGID_00000173151200330140834070000012606066740493025171_">
		<use xlink:href="#SVGID_1_"  overflow="visible"/>
	</clipPath>
	<path id="path206-8" clip-path="url(#SVGID_00000173151200330140834070000012606066740493025171_)" fill="#FF6A64" d="M247.3,245.2
		c-55.8,0-82.1,2.6-108.3,43.2S114.4,446,114.4,446h132.9h132.9c0,0,1.6-116.9-24.6-157.6C329.4,247.8,303.1,245.2,247.3,245.2z"/>
	<path id="path207-9" clip-path="url(#SVGID_00000173151200330140834070000012606066740493025171_)" fill="#EFEFEF" d="M249.8,139.9
		c0,0-98.1,1-117.9,8.9s-56.2,32.9-56.2,32.9c-2.3,16.2,28.9,31.4,48.3,16.6c19.8,25.7,38.6,11.9,51.5,6.9
		c27.7,21.8,60.4,13.9,74.3,3c13.9,10.9,46.6,18.8,74.3-3c12.9,4.9,31.7,18.8,51.5-6.9c19.9,16.7,52.8-0.1,49.5-17.8
		c0,0-37.6-23.8-57.4-31.7C347.9,140.9,249.8,139.9,249.8,139.9z"/>
	<path id="path208-7" clip-path="url(#SVGID_00000173151200330140834070000012606066740493025171_)" fill="#FFFFFF" d="M227.7,159.6
		c-19.6,2.8-31.5,2.8-36.4,14c-4.9,11.2-7.7,25.2,6.3,32.2c14,7,28,9.1,37.8-0.7C245.2,195.3,243.8,157.5,227.7,159.6z"/>
	<path id="path209-3" clip-path="url(#SVGID_00000173151200330140834070000012606066740493025171_)" fill="#FFFFFF" d="M164.6,170.2
		c-14.7,3.5-27.3,9.8-32.2,17.5s2.1,19.6,14.7,18.2c12.6-1.4,17.5,2.8,21.7-7S177.9,168.1,164.6,170.2L164.6,170.2z"/>
	<path id="path210-6" clip-path="url(#SVGID_00000173151200330140834070000012606066740493025171_)" fill="#FFFFFF" d="M335.6,170.2
		c14.7,3.5,27.3,9.8,32.2,17.5s-2.1,19.6-14.7,18.2c-12.6-1.4-17.5,2.8-21.7-7C327.2,189.1,322.3,168.1,335.6,170.2L335.6,170.2z"/>
	<path id="path211-1" clip-path="url(#SVGID_00000173151200330140834070000012606066740493025171_)" fill="#FFFFFF" d="M271,159.6
		c19.6,2.8,31.5,2.8,36.4,14c4.9,11.2,7.7,25.2-6.3,32.2c-14,7-28,9.1-37.8-0.7S254.9,157.5,271,159.6z"/>
	
		<path id="path236" opacity="0.18" clip-path="url(#SVGID_00000173151200330140834070000012606066740493025171_)" fill="#FFFFFF" d="
		M292.7,265.5c0,0-57-8.9-85.5,1.8c-28.5,10.7-35.6,17.8-10.7,17.8C221.5,285.1,307,294,292.7,265.5z"/>
</g>
</svg>
