<?xml version="1.0" encoding="utf-8"?>
<!-- Generator: Adobe Illustrator 28.0.0, SVG Export Plug-In . SVG Version: 6.00 Build 0)  -->
<svg version="1.1" id="OBJECTS" xmlns="http://www.w3.org/2000/svg" xmlns:xlink="http://www.w3.org/1999/xlink" x="0px" y="0px"
	 width="500px" height="500px" viewBox="0 0 500 500" enable-background="new 0 0 500 500" xml:space="preserve">
<g>
	<g id="g104" transform="matrix(1.2397384,0,0,1.2397384,-27.37255,503.10461)">
		<path id="path90" fill="#E22B2B" d="M180.8-328.8c-7.9,0-16.4,1.7-27.5,6.7c-28.6,13.1-85.8,58.2-120.9,89.2
			c-2.5,2.2-3.4,5.7-2.4,8.8c18.5,55.9,82.3,122.7,114.6,134.6c33.4,12.4,52.8,9.8,79.2,9.8c26.4,0,45.8,2.6,79.2-9.8
			c32.4-12,96.1-78.8,114.6-134.6c1-3.2,0.1-6.6-2.4-8.8c-35.1-30.9-92.4-76.1-120.9-89.2c-29.7-13.6-40.8-2.5-70.5-2.5
			C205.2-324.6,193.9-328.9,180.8-328.8L180.8-328.8z"/>
		<path id="path88-1" opacity="0.23" fill="#7F1C1C" d="M223.8-297.2c-62.8,0-163.9,34.1-179.3,78.6
			c48.7,103.9,179.3,109.8,179.3,109.8s130.6-5.9,179.3-109.8C387.7-263.1,286.5-297.2,223.8-297.2z"/>
		<path id="path92" opacity="0.18" fill="#FFFFFF" d="M108.8-285.4c-0.5-0.8,3.5-4.4,10.4-9.9c6.5-5.1,17.1-13,28.9-18.9
			c0.3-0.2,0.7-0.3,1-0.5c8.3-4.1,16.2-6.7,23.7-7.7c15.1-2,23.5,3.4,23.2,4.2c-0.4,1.1-9.4-1.4-22.2,1.4c-6.9,1.5-13.8,4.1-21.8,8
			c-0.3,0.2-0.6,0.3-1,0.5c-10.3,5.1-22.9,13.1-29.2,16.8C114.3-287,109.3-284.7,108.8-285.4L108.8-285.4z"/>
		<path id="path93" opacity="0.18" fill="#FFFFFF" d="M235-316.2c-0.1-0.9,4.1-2.4,11.3-3.9c6.9-1.5,17.4-3,28.6-2.3
			c0.5,0,1,0.1,1.4,0.1c23.4,1.9,36.4,14.7,35.7,15.8c-1,1.5-15.8-7.7-36.2-9.2c-0.4,0-0.9-0.1-1.3-0.1c-10-0.7-20.9,0.1-27.6,0.4
			C239.7-315.2,235.1-315.3,235-316.2z"/>
		<path id="path94" opacity="0.18" fill="#FFFFFF" d="M148.4-110.7c1.3-2.2,10.6,1,25.3,4.2c15.5,3.3,34.6,5.8,58.2,4.2
			c0,0,0.3,0,0.3,0c23.4-1.7,42.3-6.8,57.4-11.7c14.4-4.7,23.5-8.5,25-6.3c1.3,2-5.2,9.9-19.5,18.3c-14.5,8.5-35.7,16.4-61.4,18.3
			c-0.1,0-0.2,0-0.3,0c-26.1,1.9-48.2-3.3-63.7-10.3C154.3-101,147.2-108.7,148.4-110.7L148.4-110.7z"/>
	</g>
	<g id="g88">
		<path fill="#7F1C1C" d="M464.7,231c-7.8,14.3-17.3,26.8-28,37.7c-10.9,11.2-22.9,20.7-35.6,28.8C333.5,341.1,250,344.4,250,344.4
			s-85.6-3.4-153.7-48.5c-13-8.6-25.4-18.8-36.4-30.7c-9.3-10.1-17.6-21.4-24.6-34.1c5-12.5,17.5-24.2,34.7-34.5
			c46-27.9,125.3-46.6,180-46.6c54.7,0,133.7,18.7,179.8,46.5C447.1,206.8,459.7,218.5,464.7,231z"/>
		<path fill="#FF6A64" d="M401.2,297.6C333.5,341.1,250,344.4,250,344.4s-85.6-3.4-153.7-48.5c2.5-7.3,5.7-14.4,9.8-20.5
			c3.2-4.7,6.9-8.9,11.2-12.2c31.8-24.5,63.6-26,131.2-26c67.6,0,99.4,1.5,131.2,26c4.9,3.8,9,8.6,12.3,14.1c1.6,2.4,2.9,5,4.2,7.6
			c0.7,1.5,1.4,3,2,4.6C399.3,292.1,400.3,294.8,401.2,297.6z"/>
		
			<ellipse id="ellipse224_00000070082221957180394640000007998984409388739730_" opacity="0.18" fill="#FFFFFF" cx="243.3" cy="251.4" rx="55.2" ry="4.9"/>
		<path fill="#EFEFEF" d="M429.8,196.4c-10.5,4.2-28.6,9.3-42.4,1.4c-21.7,28.2-42.3,13-56.4,7.6c-30.4,23.8-66.2,15.2-81.4,3.3
			c-15.2,11.9-51,20.6-81.3-3.3c-14.1,5.4-34.7,20.6-56.4-7.6c-13.6,7.8-31.5,3-42.1-1.3c46-27.9,125.3-46.6,180-46.6
			C304.7,149.8,383.8,168.5,429.8,196.4z"/>
		<path fill="#EFEFEF" d="M436.7,268.8c-10.9,11.2-22.9,20.7-35.6,28.8C333.5,341.1,250,344.4,250,344.4s-85.6-3.4-153.7-48.5
			c-13-8.6-25.4-18.8-36.4-30.7c4.8-4,11.6-7.2,19.7-7.2c17.4,0,16.3,16.8,14.1,22.2c-1.7,4.1,3.6-2.4,12.4-4.8
			c2.8-0.8,5.9-1.1,9.2-0.6c14.1,2.1,8.7,27.1,8.7,27.1s10.8-8.7,28.2-7.6c17.4,1.1,19.5,22.7,19.5,22.7s3.7-15.6,36.3-15.2
			c36.9,0.5,38.5,18.4,38.5,18.4s1.6-17.9,38.5-18.4c32.6-0.5,36.3,15.2,36.3,15.2s2.2-21.6,19.5-22.7c17.4-1.1,28.2,7.6,28.2,7.6
			s-5.4-24.9,8.7-27.1c5.6-0.8,10.5,0.6,14.2,2.5c5.7,2.8,8.8,6.2,7.5,2.9c-2.2-5.4-3.3-22.2,14.1-22.2
			C423.9,257.9,432.3,263.2,436.7,268.8z"/>
		<path id="path95" fill="#FFFFFF" d="M225.6,155.4c-21.5,3.1-34.5,3.1-39.9,15.3c-5.4,12.3-8.4,27.6,6.9,35.2
			c15.3,7.7,30.7,10,41.4-0.8C244.8,194.5,243.2,153.1,225.6,155.4z"/>
		<path id="path96" fill="#FFFFFF" d="M156.5,166.9c-16.1,3.8-29.9,10.7-35.3,19.2c-5.4,8.4,2.3,21.5,16.1,19.9
			c13.8-1.5,19.2,3.1,23.8-7.7C165.7,187.6,171.1,164.6,156.5,166.9L156.5,166.9z"/>
		<path id="path97" fill="#FFFFFF" d="M118.2,298.8c0,0,5.4-18.4-5.4-17.6c-10.7,0.8-15.3,6.9-10.7,12.3
			C106.7,298.8,118.2,298.8,118.2,298.8z"/>
		<path id="path98" fill="#FFFFFF" d="M153.5,300.3c-15.3,1.5-24.5,6.9-16.1,10.7c8.4,3.8,25.3,17.6,27.6,10.7
			C167.3,314.9,161.2,298,153.5,300.3L153.5,300.3z"/>
		<path id="path99" fill="#FFFFFF" d="M183.4,323.3c4.6,6.1,47.5,16.1,52.9,12.3c5.4-3.8,13.8-13.8-2.3-20.7
			C217.9,308,189.5,303.4,183.4,323.3z"/>
		<path id="path100" fill="#FFFFFF" d="M343.7,166.9c16.1,3.8,29.9,10.7,35.3,19.2c5.4,8.4-2.3,21.5-16.1,19.9
			c-13.8-1.5-19.2,3.1-23.8-7.7C334.5,187.6,329.2,164.6,343.7,166.9L343.7,166.9z"/>
		<path id="path101" fill="#FFFFFF" d="M273,155.4c21.5,3.1,34.5,3.1,39.9,15.3c5.4,12.3,8.4,27.6-6.9,35.2
			c-15.3,7.7-30.7,10-41.4-0.8C253.8,194.5,255.3,153.1,273,155.4z"/>
		<path id="path102" fill="#FFFFFF" d="M380.4,298.8c0,0-5.4-18.4,5.4-17.6c10.7,0.8,15.3,6.9,10.7,12.3
			C391.9,298.8,380.4,298.8,380.4,298.8z"/>
		<path id="path103" fill="#FFFFFF" d="M345.1,300.3c15.3,1.5,24.5,6.9,16.1,10.7c-8.4,3.8-25.3,17.6-27.6,10.7
			C331.3,314.9,337.4,298,345.1,300.3L345.1,300.3z"/>
		<path id="path104" fill="#FFFFFF" d="M315.2,323.3c-4.6,6.1-47.5,16.1-52.9,12.3c-5.4-3.8-13.8-13.8,2.3-20.7
			C280.7,308,309,303.4,315.2,323.3z"/>
	</g>
</g>
</svg>
