<?xml version="1.0" encoding="utf-8"?>
<!-- Generator: Adobe Illustrator 28.0.0, SVG Export Plug-In . SVG Version: 6.00 Build 0)  -->
<svg version="1.1" id="OBJECTS" xmlns="http://www.w3.org/2000/svg" xmlns:xlink="http://www.w3.org/1999/xlink" x="0px" y="0px"
	 width="500px" height="500px" viewBox="0 0 500 500" enable-background="new 0 0 500 500" xml:space="preserve">
<g id="g253" transform="matrix(1.2397384,0,0,1.2397384,429.11463,655.87303)">
	<path id="path237" fill="#E22B2B" d="M-186.3-443.2c-15.1,1-31.6,5.2-44.2,10.4c-39.1,16.3-75.1,73.1-106.1,114.7
		c-0.9,1.2-1.2,2.7-0.8,4.1c23,84.3,90.1,102.6,192.9,102.6c102.9,0,170-18.3,193-102.9c0.3-1.2,0.2-2.5-0.5-3.6
		C24-360.1-29-423.3-68.6-436.6c-39.6-13.3-43.9-2.7-75.9-2.7C-164.4-439.2-172.3-444.2-186.3-443.2L-186.3-443.2z"/>
	<path id="path238" opacity="0.23" fill="#7F1C1C" d="M-144.5-394.8c-67.6,0-167.3,55-179.7,80.8c35.4,69.8,109.8,51.5,179.7,51.5
		c69.9,0,152.5,12.8,179.6-51.5C14.6-345.3-76.9-394.8-144.5-394.8z"/>
	<g>
		<defs>
			<path id="SVGID_00000048473997124982199250000007419920242550626716_" d="M-144.5-352.7c-65.3,0-131.5,24.9-173.1,37.1
				c51.1,72.1,115.1,34.4,173.1,34.4c58,0,119.9,37.7,173-34.4C-3.7-325.6-79.2-352.7-144.5-352.7z"/>
		</defs>
		<clipPath id="SVGID_00000152252920166323770900000014082517860578429080_">
			<use xlink:href="#SVGID_00000048473997124982199250000007419920242550626716_"  overflow="visible"/>
		</clipPath>
		<g id="g250" transform="translate(0,6.0405088)" clip-path="url(#SVGID_00000152252920166323770900000014082517860578429080_)">
			<path id="path239" fill="#7F1C1C" d="M-144.5-415.8c-65.3,0-170.5,30.6-186.5,70.5c50.6,93.1,186.5,117.4,186.5,117.4
				S-8.6-252.1,42-345.2C26-385.2-79.2-415.8-144.5-415.8z"/>
			<path id="path240" fill="#FF6A64" d="M-145.8-339.9c-58.7,0-86.3,1.3-113.9,22.6c-27.6,21.3-25.9,82.5-25.9,82.5h139.8H-6
				c0,0,1.7-61.2-25.9-82.5C-59.5-338.6-87.1-339.9-145.8-339.9z"/>
			<path id="path241" fill="#EFEFEF" d="M-144.7-395.4c0,0-93.2,0.9-112.1,8.5s-53.5,31.3-53.5,31.3c-2.2,15.4,27.5,29.8,45.9,15.8
				c18.8,24.5,36.7,11.3,49,6.6c26.4,20.7,57.4,13.2,70.6,2.8c13.2,10.3,44.3,17.9,70.6-2.8c12.2,4.7,30.1,17.9,49-6.6
				c18.9,15.9,50.2-0.1,47-16.9c0,0-35.7-22.6-54.6-30.2C-51.4-394.4-144.7-395.4-144.7-395.4z"/>
			<path id="path242" fill="#FFFFFF" d="M-165.7-376.6c-18.6,2.7-30,2.7-34.6,13.3c-4.7,10.6-7.3,24,6,30.6
				c13.3,6.7,26.6,8.6,36-0.7C-149-342.7-150.4-378.6-165.7-376.6z"/>
			<path id="path243" fill="#FFFFFF" d="M-225.6-366.6c-14,3.3-26,9.3-30.6,16.6s2,18.6,14,17.3c12-1.3,16.6,2.7,20.6-6.7
				C-217.6-348.6-213-368.6-225.6-366.6L-225.6-366.6z"/>
			<path id="path244" fill="#FFFFFF" d="M-63.1-366.6c14,3.3,26,9.3,30.6,16.6s-2,18.6-14,17.3c-12-1.3-16.6,2.7-20.6-6.7
				C-71.1-348.6-75.7-368.6-63.1-366.6L-63.1-366.6z"/>
			<path id="path245" fill="#FFFFFF" d="M-124.5-376.6c18.6,2.7,30,2.7,34.6,13.3c4.7,10.6,7.3,24-6,30.6c-13.3,6.7-26.6,8.6-36-0.7
				C-141.2-342.7-139.8-378.6-124.5-376.6z"/>
			<path id="path246" fill="#EFEFEF" d="M-144.7-248.9c0,0-105.9,12-124.7,7.3s-39.2-39.3-39.2-39.3s26.4-9.5,44.3-3
				c18.8-15.4,36.7-7.1,49-4.2c26.4-13.1,57.4-8.3,70.6-1.8c13.2-6.5,44.3-11.3,70.6,1.8c12.2-3,30.1-11.3,49,4.2
				c17.9-6.5,44.3,3,44.3,3s-26,30.2-44.8,34.9C-44.5-241.3-144.7-248.9-144.7-248.9z"/>
			<path id="path247" fill="#FFFFFF" d="M-165.7-260.7c-18.6-1.7-30-1.7-34.6-8.4s-7.3-15.1,6-19.3c13.3-4.2,26.6-5.5,36,0.4
				C-149-282.1-150.4-259.4-165.7-260.7z"/>
			<path id="path248" fill="#FFFFFF" d="M-225.6-267c-14-2.1-26-5.9-30.6-10.5c-4.7-4.6,2-11.8,14-10.9c12,0.8,16.6-1.7,20.6,4.2
				C-217.6-278.3-213-265.8-225.6-267z"/>
			<path id="path249" fill="#FFFFFF" d="M-63.1-267c14-2.1,26-5.9,30.6-10.5c4.7-4.6-2-11.8-14-10.9c-12,0.8-16.6-1.7-20.6,4.2
				C-71.1-278.3-75.7-265.8-63.1-267z"/>
			<path id="path250" fill="#FFFFFF" d="M-124.5-260.7c18.6-1.7,30-1.7,34.6-8.4c4.7-6.7,7.3-15.1-6-19.3c-13.3-4.2-26.6-5.5-36,0.4
				C-141.2-282.1-139.8-259.4-124.5-260.7z"/>
		</g>
	</g>
	<path id="path252" opacity="0.18" fill="#FFFFFF" d="M-132.4-426.4c-0.1-1,4.5-2.6,12.2-4.2c7.5-1.6,18.8-3.3,30.8-2.5
		c0.5,0,1,0.1,1.5,0.1c25.2,2.1,39.2,15.8,38.4,17c-1.1,1.6-17.1-8.3-38.9-9.9c-0.5,0-1-0.1-1.4-0.1c-10.8-0.7-22.5,0.1-29.7,0.4
		C-127.3-425.3-132.2-425.4-132.4-426.4z"/>
	<path id="path258" opacity="0.18" fill="#FFFFFF" d="M-186.1-430.4c0.1-2.6-8.7-4.7-21.8-2c-7.3,1.5-15.6,4.1-24.1,8.4
		c-0.3,0.2-0.7,0.3-1,0.5c-8.8,4.4-15.9,9.5-21.4,15c-9.7,9.4-10.5,18.3-8.2,19.1c0.9,0.3,7-4.9,15.2-10.6c5.9-3.9,12-7.3,20.4-11.5
		c0.3-0.2,0.6-0.3,0.9-0.5c8-4,14.8-6.9,21.3-9.6C-193.9-425.8-186.1-428.6-186.1-430.4z"/>
</g>
</svg>
