<?xml version="1.0" encoding="utf-8"?>
<!-- Generator: Adobe Illustrator 28.0.0, SVG Export Plug-In . SVG Version: 6.00 Build 0)  -->
<svg version="1.1" id="OBJECTS" xmlns="http://www.w3.org/2000/svg" xmlns:xlink="http://www.w3.org/1999/xlink" x="0px" y="0px"
	 width="500px" height="500px" viewBox="0 0 500 500" enable-background="new 0 0 500 500" xml:space="preserve">
<g id="g327" transform="matrix(1.2397384,0,0,1.2397384,-28.929946,810.0564)">
	<path id="path310" fill="#E22B2B" d="M182.5-557.8c-12.1,0.5-35.4,4.6-46.2,9.3c-31.4,13.6-98.2,36.1-99.3,58.8
		c2.7,83.4,71.7,116.3,99.9,129c31.2,14.1,58.3,15,88.1,15c29-0.1,53.7-2.7,85.7-15c39.3-15.1,104.3-53.6,102.3-129
		c-0.8-20.6-91-55.9-123.5-65c-30.2-8.5-37.6,8.3-66.1,8.3C205.4-546.3,197.9-558.4,182.5-557.8z"/>
	<path id="path311" opacity="0.23" fill="#7F1C1C" d="M225-515.2c-60.4,0-160.6,10.1-172.4,33.1c34,62.3,110,80.7,172.4,80.7
		c62.4,0,146.4-23.3,172.4-80.7C377.7-510.1,285.3-515.2,225-515.2z"/>
	<g>
		<defs>
			<path id="SVGID_00000141456523381446862590000007128441419706359967_" d="M225-496.7c-58.3,0-126.6,3.6-166.6,14.6
				c49.2,64.4,166.6,70.2,166.6,70.2s115.4-5.7,166.6-70.2C360.4-491.1,283.3-496.7,225-496.7z"/>
		</defs>
		<clipPath id="SVGID_00000132784577088752413130000013832333486252272773_">
			<use xlink:href="#SVGID_00000141456523381446862590000007128441419706359967_"  overflow="visible"/>
		</clipPath>
		<g id="g323" clip-path="url(#SVGID_00000132784577088752413130000013832333486252272773_)">
			<path id="path312" fill="#7F1C1C" d="M225-543.1c-58.3,0-152.3,27.3-166.6,63c45.2,83.2,166.6,88,166.6,88s121.3-4.8,166.6-88
				C377.3-515.8,283.3-543.1,225-543.1L225-543.1z"/>
			<path id="path314" fill="#EFEFEF" d="M224.8-524.9c0,0-83.3,0.8-100.1,7.6c-16.8,6.7-47.7,27.9-47.7,27.9
				c-2,13.8,24.6,26.6,41,14.1c16.8,21.9,32.8,10.1,43.7,5.9c23.6,18.5,51.3,11.8,63.1,2.5c11.8,9.2,39.5,16,63.1-2.5
				c10.9,4.2,26.9,16,43.7-5.9c16.9,14.2,44.8-0.1,42-15.1c0,0-31.9-20.2-48.7-27C308.1-524.1,224.8-524.9,224.8-524.9z"/>
			<path id="path315" fill="#FFFFFF" d="M206-508.2c-16.7,2.4-26.8,2.4-30.9,11.9c-4.2,9.5-6.5,21.4,5.4,27.3
				c11.9,5.9,23.8,7.7,32.1-0.6C220.9-477.8,219.7-509.9,206-508.2z"/>
			<path id="path316" fill="#FFFFFF" d="M152.5-499.2c-12.5,3-23.2,8.3-27.4,14.9c-4.2,6.5,1.8,16.6,12.5,15.5
				c10.7-1.2,14.9,2.4,18.4-5.9C159.6-483.2,163.8-501,152.5-499.2L152.5-499.2z"/>
			<path id="path317" fill="#FFFFFF" d="M297.7-499.2c12.5,3,23.2,8.3,27.4,14.9c4.2,6.5-1.8,16.6-12.5,15.5
				c-10.7-1.2-14.9,2.4-18.4-5.9C290.5-483.2,286.4-501,297.7-499.2L297.7-499.2z"/>
			<path id="path318" fill="#FFFFFF" d="M242.8-508.2c16.7,2.4,26.8,2.4,30.9,11.9c4.2,9.5,6.5,21.4-5.4,27.3
				c-11.9,5.9-23.8,7.7-32.1-0.6C227.9-477.8,229.1-509.9,242.8-508.2z"/>
			<path id="path319" fill="#EFEFEF" d="M224.8-381.6c0,0-83.3-0.8-100.1-7.6S78.4-427,78.4-427s23.6-13.5,39.5-4.2
				c16.8-21.9,32.8-10.1,43.7-5.9c23.6-18.5,51.3-11.8,63.1-2.5c11.8-9.2,39.5-16,63.1,2.5c10.9-4.2,26.9-16,43.7,5.9
				c16-9.2,39.5,4.2,39.5,4.2s-29.4,31.1-46.3,37.8C308.1-382.5,224.8-381.6,224.8-381.6z"/>
			<path id="path320" fill="#FFFFFF" d="M206-398.4c-16.7-2.4-26.8-2.4-30.9-11.9c-4.2-9.5-6.5-21.4,5.4-27.3
				c11.9-5.9,23.8-7.7,32.1,0.6C220.9-428.7,219.7-396.6,206-398.4z"/>
			<path id="path321" fill="#FFFFFF" d="M152.5-407.3c-12.5-3-23.2-8.3-27.4-14.9s1.8-16.6,12.5-15.5c10.7,1.2,14.9-2.4,18.4,5.9
				C159.6-423.4,163.8-405.6,152.5-407.3L152.5-407.3z"/>
			<path id="path322" fill="#FFFFFF" d="M297.7-407.3c12.5-3,23.2-8.3,27.4-14.9s-1.8-16.6-12.5-15.5c-10.7,1.2-14.9-2.4-18.4,5.9
				C290.5-423.4,286.4-405.6,297.7-407.3L297.7-407.3z"/>
			<path id="path323" fill="#FFFFFF" d="M242.8-398.4c16.7-2.4,26.8-2.4,30.9-11.9c4.2-9.5,6.5-21.4-5.4-27.3
				c-11.9-5.9-23.8-7.7-32.1,0.6C227.9-428.7,229.1-396.6,242.8-398.4z"/>
		</g>
	</g>
	<path id="path324" opacity="0.18" fill="#FFFFFF" d="M102.3-523.7c-0.2-0.9,4.6-2.9,12.3-6.1c4-1.7,22-9.3,30.3-12.5
		c3.2-1.2,6.2-2.4,9.3-3.4l0,0c8-2.8,14.6-4.6,21.2-5c11.3-0.8,15.5,4.9,15.1,5.4c-0.6,0.7-5.8-2.1-14.6-0.7
		c-6.1,1.1-11.5,3-19.6,6.1l0,0c-3,1.2-5.9,2.3-9.1,3.5c-12.8,5-22,8.4-31.1,10.8C107.8-523.3,102.5-522.8,102.3-523.7z"/>
	<path id="path325" opacity="0.18" fill="#FFFFFF" d="M242-540.6c-0.1-0.9,4-2.3,10.9-3.8c6.7-1.4,16.8-2.9,27.5-2.3
		c0.5,0,0.9,0.1,1.4,0.1c22.5,1.8,35,14.1,34.3,15.2c-0.9,1.4-15.2-7.4-34.8-8.9c-0.4,0-0.9-0.1-1.3-0.1c-9.6-0.6-20.1,0.1-26.5,0.4
		C246.5-539.6,242.1-539.7,242-540.6z"/>
	<path id="path326" opacity="0.18" fill="#FFFFFF" d="M126.2-398.5c1.6-3,13.4,1.4,32.2,5.7c19.6,4.5,43.9,7.9,73.8,5.7
		c0,0,0.4,0,0.4,0c29.7-2.4,53.7-9.2,72.7-15.9c18.3-6.4,29.9-11.6,31.7-8.7c1.7,2.7-6.6,13.6-24.8,25
		c-18.4,11.6-45.2,22.4-77.9,24.9c-0.1,0-0.3,0-0.4,0c-33.1,2.6-61.1-4.5-80.8-14.1C133.7-385.3,124.7-395.8,126.2-398.5
		L126.2-398.5z"/>
</g>
</svg>
