<?xml version="1.0" encoding="utf-8"?>
<!-- Generator: Adobe Illustrator 28.0.0, SVG Export Plug-In . SVG Version: 6.00 Build 0)  -->
<svg version="1.1" id="OBJECTS" xmlns="http://www.w3.org/2000/svg" xmlns:xlink="http://www.w3.org/1999/xlink" x="0px" y="0px"
	 width="500px" height="500px" viewBox="0 0 500 500" enable-background="new 0 0 500 500" xml:space="preserve">
<g id="g277" transform="matrix(1.2397384,0,0,1.2397384,270.62511,807.03725)">
	<path id="path261" fill="#E22B2B" d="M-57.1-541.9c-15.2,0-33.2,4.9-49.4,9.8c-42.7,12.8-64.4,19.8-95.4,43.5
		c-1.1,0.8-1.5,2.2-1.2,3.5c16.1,58.2,69.7,105.2,104.1,117.9c34.8,12.9,54.9,10.2,82.4,10.2c27.5,0,47.6,2.7,82.4-10.2
		c34.4-12.7,88.1-59.9,104.1-118.2c0.3-1.2,0-2.4-0.9-3.3c-33.2-31.2-84.4-44.9-121.1-49.6c-40-5.2-33.3,6-64.2,6
		C-35.6-532.2-43.4-541.9-57.1-541.9z"/>
	<path id="path262" opacity="0.23" fill="#7F1C1C" d="M-16.6-497.6c-65.3,0-161.8-6.3-173.7,18.6c34.2,67.5,106.2,64.1,173.7,64.1
		c67.6,0,147.5-1.9,173.7-64.1C137.2-509.3,48.7-497.6-16.6-497.6z"/>
	<g>
		<defs>
			<path id="SVGID_00000145737878808973065410000007251662581778038947_" d="M-16.6-478.4c-15,0-30.1-8.4-44.9-7.9
				c-47.4,1.6-91.9-1.7-122.5,7.3c51.8,51.5,167.4,47.3,167.4,47.3S101.8-430,150.7-479c-25.4-7.9-78.3-5.6-131.1-7.4
				C7.4-486.9-4.8-478.4-16.6-478.4z"/>
		</defs>
		<clipPath id="SVGID_00000152960253804544990310000000158527830257152163_">
			<use xlink:href="#SVGID_00000145737878808973065410000007251662581778038947_"  overflow="visible"/>
		</clipPath>
		<g id="g274" clip-path="url(#SVGID_00000152960253804544990310000000158527830257152163_)">
			<path id="path263" fill="#7F1C1C" d="M-16.6-545.1c-63.1,0-164.9,29.6-180.3,68.2c48.9,90.1,180.3,95.2,180.3,95.2
				s131.4-5.1,180.3-95.2C148.2-515.5,46.5-545.1-16.6-545.1L-16.6-545.1z"/>
			<path id="path264" fill="#FF6A64" d="M-17.9-449.8c-56.8,0-83.5,1.3-110.2,21.9c-26.7,20.6-25,79.8-25,79.8h135.2h135.2
				c0,0,1.7-59.2-25-79.8C65.5-448.5,38.8-449.8-17.9-449.8z"/>
			<path id="path265" fill="#EFEFEF" d="M-16.8-525.4c0,0-90.2,0.9-108.4,8.2c-18.2,7.3-51.7,30.2-51.7,30.2
				c-2.1,14.9,26.6,28.8,44.4,15.3c18.2,23.7,35.5,10.9,47.3,6.4c25.5,20,55.6,12.7,68.3,2.7c12.7,10,42.8,17.3,68.3-2.7
				c11.8,4.5,29.1,17.3,47.3-6.4c18.3,15.4,48.5-0.1,45.5-16.3c0,0-34.5-21.9-52.8-29.2C73.3-524.5-16.8-525.4-16.8-525.4z"/>
			<path id="path266" fill="#FFFFFF" d="M-37.1-507.2c-18,2.6-29,2.6-33.5,12.9c-4.5,10.3-7.1,23.2,5.8,29.6
				c12.9,6.4,25.8,8.4,34.8-0.6C-21-474.4-22.3-509.2-37.1-507.2z"/>
			<path id="path267" fill="#FFFFFF" d="M-95.1-497.6c-13.5,3.2-25.1,9-29.6,16.1c-4.5,7.1,1.9,18,13.5,16.7
				c11.6-1.3,16.1,2.6,20-6.4C-87.4-480.2-82.9-499.5-95.1-497.6L-95.1-497.6z"/>
			<path id="path268" fill="#FFFFFF" d="M62.1-497.6c13.5,3.2,25.1,9,29.6,16.1c4.5,7.1-1.9,18-13.5,16.7c-11.6-1.3-16.1,2.6-20-6.4
				C54.4-480.2,49.8-499.5,62.1-497.6L62.1-497.6z"/>
			<path id="path269" fill="#FFFFFF" d="M2.7-507.2c18,2.6,29,2.6,33.5,12.9c4.5,10.3,7.1,23.2-5.8,29.6
				c-12.9,6.4-25.8,8.4-34.8-0.6C-13.4-474.4-12.1-509.2,2.7-507.2z"/>
		</g>
	</g>
	<path id="path275" opacity="0.18" fill="#FFFFFF" d="M-139.7-507.5c-0.2-0.9,5-3.1,13.3-6.6c4.4-1.8,23.8-10.1,32.8-13.6
		c3.4-1.3,6.7-2.6,10-3.7l0,0c8.7-3.1,15.8-5,22.9-5.4c12.2-0.9,16.8,5.3,16.3,5.8c-0.6,0.8-6.2-2.3-15.8-0.8
		c-6.6,1.2-12.5,3.3-21.2,6.6l0,0c-3.3,1.3-6.4,2.5-9.8,3.8c-13.8,5.4-23.9,9.1-33.7,11.7C-133.7-507.2-139.4-506.6-139.7-507.5z"/>
	<path id="path276" opacity="0.18" fill="#FFFFFF" d="M3.6-526.5c-0.1-0.9,4.3-2.5,11.8-4.1c7.2-1.5,18.2-3.2,29.8-2.4
		c0.5,0,1,0.1,1.5,0.1c24.4,2,37.9,15.3,37.1,16.4c-1,1.5-16.5-8-37.7-9.6c-0.5,0-0.9-0.1-1.4-0.1c-10.4-0.7-21.8,0.1-28.7,0.4
		C8.5-525.4,3.8-525.5,3.6-526.5z"/>
	<path id="path277" opacity="0.18" fill="#FFFFFF" d="M-112.1-404.5c1.6-2.3,13.3,1.1,32,4.4c19.5,3.5,43.6,6.1,73.4,4.4
		c0,0,0.4,0,0.4,0c29.5-1.8,53.4-7,72.3-12.1c18.2-4.9,29.7-8.8,31.5-6.6c1.7,2.1-6.6,10.3-24.6,19.1c-18.3,8.8-45,17.1-77.5,19
		c-0.1,0-0.3,0-0.4,0c-32.9,2-60.8-3.4-80.4-10.8C-104.7-394.4-113.6-402.4-112.1-404.5L-112.1-404.5z"/>
</g>
</svg>
